<svg width="45" height="45" viewBox="0 0 45 45" fill="none" xmlns="http://www.w3.org/2000/svg">
<circle cx="22.5" cy="22.5" r="22.5" fill="#FF3131"/>
<path d="M28.8925 16.3025C28.5025 15.9125 27.8725 15.9125 27.4825 16.3025L22.5925 21.1825L17.7025 16.2925C17.3125 15.9025 16.6825 15.9025 16.2925 16.2925C15.9025 16.6825 15.9025 17.3125 16.2925 17.7025L21.1825 22.5925L16.2925 27.4825C15.9025 27.8725 15.9025 28.5025 16.2925 28.8925C16.6825 29.2825 17.3125 29.2825 17.7025 28.8925L22.5925 24.0025L27.4825 28.8925C27.8725 29.2825 28.5025 29.2825 28.8925 28.8925C29.2825 28.5025 29.2825 27.8725 28.8925 27.4825L24.0025 22.5925L28.8925 17.7025C29.2725 17.3225 29.2725 16.6825 28.8925 16.3025Z" fill="white"/>
</svg>
