<svg width="22" height="22" viewBox="0 0 22 22" fill="none" xmlns="http://www.w3.org/2000/svg">
<path d="M2.2 4.4H0V19.8C0 21.01 0.99 22 2.2 22H17.6V19.8H2.2V4.4ZM19.8 0H6.6C5.39 0 4.4 0.99 4.4 2.2V15.4C4.4 16.61 5.39 17.6 6.6 17.6H19.8C21.01 17.6 22 16.61 22 15.4V2.2C22 0.99 21.01 0 19.8 0ZM19.8 15.4H6.6V2.2H19.8V15.4ZM12.661 8.976C13.112 8.173 13.959 7.7 14.454 6.996C14.982 6.248 14.685 4.862 13.2 4.862C12.232 4.862 11.748 5.599 11.55 6.215L10.043 5.588C10.461 4.356 11.572 3.3 13.189 3.3C14.542 3.3 15.477 3.916 15.95 4.686C16.357 5.346 16.588 6.589 15.961 7.513C15.268 8.536 14.608 8.844 14.245 9.504C14.102 9.768 14.047 9.944 14.047 10.802H12.375C12.386 10.351 12.309 9.614 12.661 8.976ZM12.045 13.145C12.045 12.496 12.562 12.001 13.2 12.001C13.849 12.001 14.344 12.496 14.344 13.145C14.344 13.783 13.86 14.3 13.2 14.3C12.562 14.3 12.045 13.783 12.045 13.145Z" fill="#CCCCCC"/>
</svg>
